<svg width="319" height="369" viewBox="0 0 319 369" fill="none" xmlns="http://www.w3.org/2000/svg">
<path d="M12.8197 60.8502C5.87972 138.437 2.45994 180.752 0.796578 245.071C3.18337 270.056 7.72396 280.852 25.7766 290.145C98.4137 321.395 149.093 345.451 208.548 368.048C233.602 370.669 243.346 365.31 253.168 351.773C273.365 302.162 283.155 246.253 302.225 175.999C307.102 148.586 303.087 136.679 282.783 122.093C207.166 78.2136 96.8743 17.352 96.8743 17.352C96.8743 17.352 76.0395 3.79991 62.5624 4.85088C46.5933 7.68499 39.2289 12.1534 29.5733 21.8912C18.3974 33.409 14.7579 41.9507 12.8197 60.8502Z" fill="#00A8DB"/>
<path d="M16.6868 62.3789C19.7256 140.216 21.7452 182.621 28.3207 246.624C33.883 271.099 39.7669 281.226 58.8597 288.134C134.897 309.838 188.237 327.216 250.092 342.024C275.277 341.42 284.255 334.859 292.265 320.177C305.953 268.391 308.512 211.689 318.442 139.573C319.773 111.761 314.267 100.465 292.265 88.5957C211.658 54.7465 94.4886 8.48892 94.4886 8.48892C94.4886 8.48892 72.0918 -2.28758 58.8597 0.478247C43.3842 5.33123 36.6517 10.7047 28.3207 21.5973C18.7095 34.4498 16.1921 43.3867 16.6868 62.3789Z" fill="white"/>
</svg>
