<svg width="620" height="640" viewBox="0 0 620 640" fill="none" xmlns="http://www.w3.org/2000/svg">
<path fill-rule="evenodd" clip-rule="evenodd" d="M327.525 495.743C415.225 476.489 532.076 438.28 512.875 307.179C493.673 176.077 411.36 125.528 309.525 125.528C207.694 125.528 91.9973 202.595 114.709 362.247C137.422 521.898 239.825 514.997 327.525 495.743ZM39.2609 337.709C35.6396 301.229 39.4873 265.134 49.8231 231.298L20.333 215.452C15.3621 212.782 13.4927 206.577 16.15 201.593L56.4118 126.191C59.0775 121.207 65.2639 119.331 70.2348 122L99.7249 137.847C122.081 110.473 149.903 87.2604 182.176 70.0704L172.503 37.9615C170.868 32.5488 173.92 26.8351 179.318 25.1987L260.94 0.440822C266.338 -1.19552 272.03 1.86527 273.665 7.27798L283.338 39.3868C319.71 35.7551 346.208 49.1244 379.94 59.4865L395.738 29.9036C398.399 24.9189 404.585 23.0429 409.554 25.7127L484.721 66.1025C489.69 68.7723 491.56 74.9771 488.899 79.961L473.101 109.545C500.39 131.97 533.011 150.369 550.147 182.749L582.157 173.04C587.552 171.404 593.249 174.464 594.88 179.876L619.561 261.753C621.192 267.166 618.141 272.88 612.745 274.517L580.736 284.226C584.356 320.704 580.508 356.8 570.178 390.635L599.669 406.482C604.639 409.152 606.509 415.357 603.847 420.341L563.583 495.743C560.922 500.727 554.736 502.604 549.768 499.933L520.276 484.087C497.92 511.461 470.098 534.674 437.819 551.864L447.498 583.973C449.129 589.384 446.078 595.099 440.683 596.735L359.058 621.489C353.668 623.129 347.968 620.068 346.334 614.653L336.66 582.547C300.296 586.179 264.31 582.319 230.578 571.956L214.785 601.54C212.119 606.524 205.933 608.397 200.962 605.73L125.795 565.34C120.832 562.671 118.955 556.466 121.62 551.482L137.422 521.898C110.128 499.473 86.9917 471.564 69.8492 439.185L37.8443 448.893C32.4459 450.53 26.7457 447.47 25.1194 442.057L0.440967 360.18C-1.19365 354.768 1.8576 349.054 7.25602 347.417L39.2609 337.709Z" fill="#72E9F9"/>
<path fill-rule="evenodd" clip-rule="evenodd" d="M211.408 163.139L214.25 163.042L214.331 165.576C214.466 170.134 214.403 175.01 214.336 180.326C214.288 184.031 214.238 187.95 214.25 192.124L214.722 200.367C214.71 208.046 214.656 218.734 214.561 232.432L214.252 271.426C216.341 272.121 217.911 273.93 218.225 276.131C219.949 276.394 221.272 277.862 221.272 279.629C221.272 280.879 220.609 281.979 219.61 282.609L220.826 285.557C221.366 286.867 222.257 287.987 223.403 288.796C228.427 292.34 231.384 298.081 231.314 304.153C231.312 304.314 231.308 304.475 231.302 304.636C231.28 305.218 230.783 305.666 230.189 305.651C229.597 305.629 229.134 305.14 229.156 304.557C229.162 304.415 229.165 304.272 229.167 304.129C229.229 298.745 225.658 293.653 221.203 290.509C219.727 289.467 218.58 288.029 217.888 286.349L217.524 283.169H215.998C215.998 283.169 215.468 286.031 215.468 288.269C215.468 290.507 215.998 294.94 215.998 294.94H217.757C219.772 294.94 221.411 296.551 221.411 298.531C221.411 300.51 219.772 302.121 217.757 302.121H217.505C215.49 302.121 214.799 301.087 214.799 298.531C214.799 297.192 214.652 296.235 212.475 296.235C210.298 296.235 210.858 298.531 210.858 298.531C210.858 300.51 209.219 302.121 207.204 302.121H206.952C204.937 302.121 203.298 300.51 203.298 298.531C203.298 296.551 206.697 294.876 208.712 294.876C208.712 294.876 209.248 290.848 209.248 288.796C209.248 287.066 208.712 283.528 208.712 283.528H210.858C210.858 283.528 210.41 286.83 210.41 288.845C210.41 290.86 210.858 294.876 210.858 294.876C210.858 294.876 212.042 295.09 212.606 295.103C213.17 295.115 213.851 294.94 213.851 294.94C213.851 294.94 214.322 290.821 214.322 288.845C214.322 286.868 213.851 283.169 213.851 283.169H210.858H208.712H207.185L205.874 286.349C205.215 287.946 203.243 289.348 201.74 290.417L201.549 290.553C197.194 293.655 195.541 298.659 195.541 303.937C195.541 308.396 197.321 312.575 200.553 315.705C203.785 318.834 208.063 321.473 212.606 321.407C216.208 321.356 219.891 319.365 222.769 317.207C225.557 315.118 229.167 309.403 229.768 308.084C230.369 306.765 230.652 308.846 230.477 309.403C229.32 313.081 226.954 316.403 223.814 318.757C220.567 321.19 216.702 322.507 212.638 322.565C207.515 322.638 202.69 320.736 199.047 317.207C195.402 313.678 193.394 308.965 193.394 303.937C193.394 297.985 196.326 292.343 201.237 288.845C202.433 287.993 203.348 286.856 203.884 285.557L205.1 282.609C204.101 281.979 203.437 280.879 203.437 279.629C203.437 277.862 204.761 276.394 206.484 276.131C206.839 273.649 208.79 271.665 211.281 271.215L211.42 271.215L213.066 234.955C213.164 221.153 211.878 193.565 211.878 193.565C211.855 182.957 211.725 173.656 211.488 165.663L211.408 163.139ZM207.204 300.011C208.035 300.011 208.711 299.347 208.711 298.531V296.235C208.711 296.235 205.445 296.891 205.445 298.531C205.445 300.034 206.014 300.025 206.75 300.014C206.786 300.013 206.822 300.012 206.858 300.012C206.889 300.012 206.921 300.011 206.952 300.011H207.204ZM220.086 298.531C219.947 300.593 215.682 301.492 215.998 298.531V296.235C215.998 296.235 220.225 296.468 220.086 298.531ZM216.036 276.089C215.642 274.45 214.141 273.228 212.355 273.228C210.569 273.228 209.068 274.45 208.673 276.089H216.036ZM207.04 278.198H207.498H217.21H217.669C218.472 278.198 219.125 278.84 219.125 279.629C219.125 280.417 218.472 281.059 217.669 281.059H207.04C206.237 281.059 205.584 280.417 205.584 279.629C205.584 278.84 206.237 278.198 207.04 278.198ZM188.645 287.382H186.768C186.239 287.382 185.81 286.956 185.81 286.431C185.81 285.906 186.239 285.48 186.768 285.48H188.645C189.174 285.48 189.603 285.906 189.603 286.431C189.603 286.956 189.174 287.382 188.645 287.382ZM190.135 294.114L188.33 294.876C187.821 295.091 187.574 295.7 187.778 296.235C187.982 296.771 188.56 297.031 189.07 296.816L190.875 296.054C191.384 295.839 191.631 295.231 191.427 294.695C191.271 294.287 190.899 294.039 190.505 294.039C190.382 294.039 190.257 294.063 190.135 294.114ZM191.747 278.606L190.056 277.245C189.579 276.861 189.46 276.1 189.79 275.546C189.994 275.203 190.321 275.019 190.654 275.019C190.86 275.019 191.069 275.09 191.251 275.237L192.942 276.598C193.419 276.982 193.538 277.743 193.208 278.297C192.878 278.852 192.224 278.99 191.747 278.606ZM237.013 287.382H238.889C239.418 287.382 239.847 286.956 239.847 286.431C239.847 285.906 239.418 285.48 238.889 285.48H237.013C236.484 285.48 236.055 285.906 236.055 286.431C236.055 286.956 236.484 287.382 237.013 287.382ZM235.523 294.114L237.328 294.876C237.837 295.091 238.084 295.7 237.88 296.235C237.676 296.771 237.098 297.031 236.589 296.816L234.783 296.054C234.274 295.839 234.027 295.231 234.231 294.695C234.387 294.287 234.759 294.039 235.153 294.039C235.276 294.039 235.401 294.063 235.523 294.114ZM233.911 278.606L235.603 277.245C236.08 276.861 236.199 276.1 235.869 275.546C235.665 275.203 235.338 275.019 235.004 275.019C234.798 275.019 234.59 275.09 234.408 275.237L232.716 276.598C232.239 276.982 232.12 277.742 232.45 278.297C232.78 278.851 233.434 278.99 233.911 278.606Z" fill="#FECF26"/>
<path d="M351.456 428.678C341 431.439 335.634 438.009 331.103 444.128C326.562 450.247 336.544 447.336 342.052 445.127C347.56 442.919 360.823 434.751 360.823 434.751L404.792 421.411V401.011L391.643 400.24C391.643 400.24 361.922 425.916 351.456 428.678Z" fill="white"/>
<path d="M397.016 279.27C387.612 314.973 382.758 349.135 381.99 381.906C381.99 381.906 373.183 383.01 374.283 390.74C375.383 398.471 398.505 419.452 398.505 419.452L406.516 392.816L409.511 294.665L397.016 279.27" fill="white"/>
<path fill-rule="evenodd" clip-rule="evenodd" d="M393.808 297.543L399.208 293.949C399.553 293.72 400.008 293.898 400.132 294.312L402.015 300.585C402.172 301.108 401.703 301.597 401.218 301.419L393.935 298.738C393.438 298.555 393.362 297.839 393.808 297.543ZM394.462 298.58L401.098 300.505L399.122 294.799L394.462 298.58Z" fill="#F97D7B"/>
<path fill-rule="evenodd" clip-rule="evenodd" d="M396.178 342.713L401.578 339.12C401.923 338.891 402.378 339.069 402.502 339.483L404.385 345.756C404.542 346.279 404.074 346.768 403.588 346.589L396.305 343.909C395.808 343.726 395.732 343.01 396.178 342.713ZM396.832 343.75L403.468 345.676L401.492 339.97L396.832 343.75Z" fill="#F97D7B"/>
<path fill-rule="evenodd" clip-rule="evenodd" d="M399.017 368.091L398.615 361.603C398.59 361.189 398.971 360.883 399.39 360.982L405.748 362.482C406.277 362.607 406.466 363.259 406.069 363.592L400.113 368.579C399.707 368.919 399.05 368.626 399.017 368.091ZM400.239 368.041L405.219 363.239L399.306 362.102L400.239 368.041Z" fill="#F97D7B"/>
<path fill-rule="evenodd" clip-rule="evenodd" d="M388.782 363.305L395.25 362.901C395.663 362.876 395.968 363.258 395.87 363.678L394.373 370.056C394.249 370.587 393.599 370.776 393.267 370.378L388.296 364.403C387.957 363.996 388.248 363.338 388.782 363.305ZM388.832 364.531L393.619 369.527L394.752 363.594L388.832 364.531Z" fill="#F97D7B"/>
<path fill-rule="evenodd" clip-rule="evenodd" d="M393.775 396.377L399.578 399.272C399.948 399.456 400.022 399.941 399.727 400.255L395.252 405.028C394.88 405.426 394.223 405.263 394.134 404.752L392.807 397.085C392.716 396.562 393.297 396.138 393.775 396.377ZM393.207 397.464L394.863 404.191L398.801 399.622L393.207 397.464Z" fill="#F97D7B"/>
<path fill-rule="evenodd" clip-rule="evenodd" d="M390.931 378.308L396.733 381.203C397.104 381.388 397.177 381.872 396.883 382.187L392.408 386.959C392.035 387.357 391.378 387.195 391.29 386.683L389.962 379.016C389.872 378.493 390.452 378.069 390.931 378.308ZM390.363 379.395L392.019 386.123L395.957 381.554L390.363 379.395Z" fill="#F97D7B"/>
<path d="M428.545 300.739L434.925 320.06C449.508 364.307 456.689 386.766 456.905 388.872C457.039 390.18 456.248 391.158 455.029 391.49C454.296 391.69 453.4 391.679 452.287 391.513C450.555 391.256 448.24 390.604 445.444 389.636C443.283 388.887 440.948 387.988 438.582 387.017L437.587 386.605C437.264 386.47 436.95 386.337 436.645 386.208L435.065 385.524L434.613 385.324L434.351 384.906C433.885 384.161 433.221 382.845 432.566 381.041C431.991 379.455 431.532 377.757 431.23 375.963L431.125 375.286C431.031 374.627 430.13 373.103 428.27 370.5L426.975 368.721C425.912 367.284 423.867 364.538 423.662 364.26L422.459 362.627C421.31 361.056 420.307 359.652 419.327 358.237C414.411 351.138 410.938 344.924 408.889 338.944C407.15 333.872 406.541 329.172 407.229 324.851C408.283 318.256 407.879 311.954 406.341 306.039C405.062 301.125 409.106 296.591 414.935 294.925C420.959 293.202 426.697 295.153 428.545 300.739Z" fill="white"/>
<path d="M417.868 272.169C414.315 275.952 411.333 278.837 408.924 280.823C404.865 284.17 399.047 287.757 391.469 291.583C414.648 296.968 428.801 298.032 433.929 294.777C433.929 294.777 431.793 284.695 428.725 280.375C426.44 277.159 417.868 272.169 417.868 272.169Z" fill="white"/>
<path d="M380.997 223.564C385.813 241.912 398.971 261.067 412.983 257.368C426.994 253.668 434.749 228.59 429.933 210.242C425.117 191.894 409.854 180.02 395.843 183.719C381.831 187.418 376.181 205.217 380.997 223.564" fill="white"/>
<path d="M377.791 229.416C383.241 250.413 398.132 272.335 413.989 268.101C429.846 263.867 438.622 235.167 433.172 214.17C427.722 193.172 410.449 179.583 394.592 183.816C378.735 188.05 372.341 208.419 377.791 229.416" fill="white"/>
<path fill-rule="evenodd" clip-rule="evenodd" d="M403.097 186.231C392.291 186.847 384.405 190.408 379.985 196.682L379.486 197.408C377.3 200.573 375.462 202.565 374.658 208.556L374.58 209.192C374.121 213.133 373.987 217.291 374.222 218.67C374.35 219.253 374.599 219.457 374.914 219.395C375.628 219.255 377.477 215.958 380.462 209.505L382.967 212.446C384.33 214.025 387.22 215.514 388.933 216.633C390.646 217.752 403.097 186.231 403.097 186.231Z" fill="#E7EAEE"/>
<path fill-rule="evenodd" clip-rule="evenodd" d="M392.188 245.835C386.171 248.352 381.6 251.621 380.388 250.262C379.176 248.902 383.309 244.761 386.521 239.138C389.882 233.545 393.076 226.501 393.672 223.635L395.201 216.391C399.672 222.051 403.858 241.039 392.188 245.835Z" fill="white"/>
<path d="M322.235 591.617L322.561 611.759H333.983L337.403 588.648L322.235 591.617" fill="white"/>
<path d="M447.324 484.505C447.324 484.505 373.215 482.864 349.918 479.493C324.057 475.751 309.914 466.908 304.289 467.953C301.654 468.443 286.098 471.208 253.639 474.671C239.911 476.136 204.276 476.361 204.276 476.361L190.445 446.832C190.445 446.832 287.772 427.231 318.543 435.714C328.222 438.383 349.182 442.234 374.103 440.828C395.652 439.612 454.26 428.193 454.26 428.193C454.26 428.193 477.924 436.713 473.64 457.668C469.357 478.622 447.324 484.505 447.324 484.505Z" fill="white"/>
<path fill-rule="evenodd" clip-rule="evenodd" d="M198.375 459.466L193.819 446.233C193.819 446.233 290.982 428.053 321.753 436.537C331.432 439.205 340.178 443.605 365.099 442.199C374.639 441.661 390.95 439.421 414.032 435.48C425.709 433.486 427.585 434.224 418.408 440.244C397.127 454.204 349.789 450.914 306.839 444.623C227.015 432.932 198.375 459.466 198.375 459.466Z" fill="#E7EAEE"/>
<path d="M335.128 596.19C339.963 601.549 346.372 610.374 343.072 619.209L285.822 636.877C285.822 636.877 283.623 630.249 286.922 624.734C290.23 619.209 321.466 597.411 321.466 597.411L335.128 596.19Z" fill="white"/>
<path fill-rule="evenodd" clip-rule="evenodd" d="M308.703 608.158C308.324 608.055 307.933 608.28 307.831 608.66C307.728 609.04 307.952 609.432 308.331 609.535C310.196 610.042 311.424 611.224 311.856 612.72C312.415 614.655 312.476 616.634 311.842 619.801C311.765 620.187 312.014 620.563 312.399 620.641C312.784 620.718 313.159 620.468 313.236 620.082C313.914 616.695 313.846 614.484 313.222 612.323C312.65 610.342 311.041 608.794 308.703 608.158Z" fill="#E7EAEE"/>
<path fill-rule="evenodd" clip-rule="evenodd" d="M340.229 620.159L283.907 636.783C283.907 636.783 276.753 635.275 284.15 634.221C291.749 633.138 336.242 612.7 341.136 616.423C341.832 616.952 340.66 619.005 340.229 620.159Z" fill="#E7EAEE"/>
<path d="M480.569 480.291C480.569 480.291 455.154 488.338 434.689 491.354C414.223 494.371 373.401 496.087 373.401 496.087C373.401 496.087 360.656 503.037 359.834 506.255C359.513 507.509 357.582 524.074 352.242 545.235C349.731 555.189 336.309 600.203 336.309 600.203L318.543 592.315C318.543 592.315 319.256 509.579 330.597 482.138C341.937 454.696 458.507 428.044 458.507 428.044C458.507 428.044 483.247 423.554 489.983 443.85C496.718 464.145 480.569 480.291 480.569 480.291Z" fill="white"/>
<path fill-rule="evenodd" clip-rule="evenodd" d="M333.464 597.351L315.699 589.462C316.174 534.305 320.192 497.579 327.753 479.285C327.753 479.285 320.026 576.674 333.464 597.351Z" fill="#E7EAEE"/>
<path d="M178.548 460.552C174.127 466.259 166.576 474.122 157.33 472.397L130.042 418.909C130.042 418.909 137.063 415.793 143.051 418.095C149.05 420.404 175.427 448.016 175.427 448.016L178.548 460.552Z" fill="white"/>
<path fill-rule="evenodd" clip-rule="evenodd" d="M297.073 617.656C296.789 617.383 296.339 617.393 296.067 617.678C295.796 617.962 295.805 618.413 296.089 618.686C297.741 620.274 298.047 622.935 297.1 624.541C296.9 624.88 297.011 625.317 297.349 625.518C297.687 625.718 298.123 625.606 298.323 625.267C299.601 623.101 299.211 619.711 297.073 617.656Z" fill="#E7EAEE"/>
<path fill-rule="evenodd" clip-rule="evenodd" d="M302.881 612.953C302.594 612.683 302.144 612.697 301.876 612.984C301.607 613.271 301.621 613.723 301.907 613.993L302.292 614.363C305.282 617.315 306.139 619.895 303.506 622.664C303.235 622.949 303.246 623.4 303.53 623.672C303.814 623.944 304.264 623.933 304.535 623.648C306.481 621.602 306.88 619.393 306.018 617.181C305.424 615.655 304.389 614.375 302.881 612.953Z" fill="#E7EAEE"/>
<path fill-rule="evenodd" clip-rule="evenodd" d="M330.246 612.019C328.614 615.148 319.949 613.864 321.457 605.208C322.17 601.113 334.766 603.351 330.246 612.019Z" fill="#E7EAEE"/>
<path fill-rule="evenodd" clip-rule="evenodd" d="M162.739 473.392C151.288 460.266 144.707 430.745 135.278 420.587C131.949 417.002 127.631 416.197 132.279 424.686C140.781 440.217 157.123 473.392 157.123 473.392C157.988 473.826 159.057 473.392 160.024 473.392H162.739Z" fill="#E7EAEE"/>
<path d="M351.456 428.678C341 431.439 335.634 438.009 331.103 444.128C326.562 450.247 336.544 447.336 342.052 445.127C347.56 442.919 358.096 434.537 358.096 434.537L351.456 428.678Z" fill="white"/>
<path d="M446.703 403.831C446.703 403.831 387.841 429.196 379.546 429.23C371.26 429.264 350.925 439.168 349.826 446.898C348.489 456.303 383.954 442.481 383.954 442.481C383.954 442.481 463.218 442.481 476.423 429.23C489.638 415.978 480.832 388.37 480.832 388.37L446.703 403.831" fill="white"/>
<path d="M461.018 285.671C461.018 285.671 446.704 294.504 444.504 323.217C442.305 351.928 451.112 386.162 451.112 386.162C451.112 386.162 445.604 390.579 444.504 394.997C443.404 399.414 446.751 405.244 446.751 405.244C446.751 405.244 479.73 421.5 481.933 422.604C484.134 423.708 492.941 420.395 492.941 411.56C492.941 402.727 489.638 394.997 489.638 394.997C488.058 336.717 497.344 280.148 461.018 285.671" fill="white"/>
<path fill-rule="evenodd" clip-rule="evenodd" d="M402.707 224.575C399.321 220.027 392.164 218.546 390.254 225.726C390.254 225.726 388.786 230.059 391.744 232.736C400.804 240.936 406.093 229.123 402.707 224.575Z" fill="white"/>
<path fill-rule="evenodd" clip-rule="evenodd" d="M383.798 229.509C380.581 225.188 373.782 223.781 371.967 230.603C371.967 230.603 370.573 234.718 373.383 237.262C381.991 245.052 387.015 233.83 383.798 229.509Z" fill="white"/>
<path d="M410.138 284.818C410.138 284.818 410.138 337.901 409.361 367.564C408.584 397.228 415.362 426.455 428.312 449.311C441.262 472.168 439.499 504.866 449.045 507.296C524.549 526.52 504.221 291.264 476.284 276.231C448.347 261.197 439.119 258.013 439.119 258.013" fill="white"/>
<path fill-rule="evenodd" clip-rule="evenodd" d="M448.862 299.711L455.368 309.457C455.908 310.265 455.501 311.366 454.566 311.625L445.883 314.034C444.874 314.314 443.92 313.44 444.105 312.407L446.28 300.253C446.507 298.99 448.15 298.645 448.862 299.711ZM447.448 301.211L445.504 312.659L453.055 309.457L447.448 301.211Z" fill="#F97D7B"/>
<path fill-rule="evenodd" clip-rule="evenodd" d="M469.797 290.192L477.465 302.54C477.955 303.328 477.574 304.368 476.692 304.652L463.303 308.958C462.188 309.316 461.143 308.245 461.525 307.135L467.245 290.482C467.635 289.347 469.164 289.173 469.797 290.192ZM467.978 291.698L464.061 307.135L475.669 302.54L467.978 291.698Z" fill="#F97D7B"/>
<path fill-rule="evenodd" clip-rule="evenodd" d="M474.521 383.606L469.305 403.269C468.984 404.478 467.379 404.717 466.722 403.654L458.967 391.111C458.537 390.416 458.777 389.501 459.493 389.108L472.464 381.988C473.561 381.386 474.842 382.394 474.521 383.606ZM473.147 384.19L461.124 390.359L467.931 402.902L473.147 384.19Z" fill="#F97D7B"/>
<path fill-rule="evenodd" clip-rule="evenodd" d="M484.966 455.808L482.122 469.287C481.861 470.523 480.244 470.834 479.547 469.781L471.863 458.184C471.296 457.329 471.79 456.171 472.798 455.991L483.326 454.108C484.319 453.931 485.175 454.818 484.966 455.808ZM482.485 455.595L473.361 458.84L481.234 467.857L482.485 455.595Z" fill="#F97D7B"/>
<path fill-rule="evenodd" clip-rule="evenodd" d="M460.318 452.955L457.474 466.434C457.213 467.67 455.596 467.981 454.898 466.928L447.215 455.331C446.648 454.476 447.141 453.318 448.15 453.138L458.677 451.255C459.67 451.078 460.527 451.965 460.318 452.955ZM459.001 454.127L448.38 453.833L457.12 465.099L459.001 454.127Z" fill="#F97D7B"/>
<path fill-rule="evenodd" clip-rule="evenodd" d="M473.59 425.377L470.746 438.856C470.485 440.092 468.868 440.403 468.171 439.35L460.487 427.754C459.921 426.898 460.414 425.74 461.422 425.56L471.95 423.677C472.943 423.5 473.799 424.387 473.59 425.377ZM472.199 425.081L462.62 427.915L470.303 437.609L472.199 425.081Z" fill="#F97D7B"/>
<path fill-rule="evenodd" clip-rule="evenodd" d="M158.796 468.993C159.511 470.393 160.683 470.977 162.246 471.064C167.812 471.375 172.225 468.911 176.163 465.322C177.655 463.961 178.979 462.414 180.475 461.057C181.527 460.103 182.655 459.481 184.297 460.072C185.554 460.524 187.03 460.353 188.404 460.494C191.505 460.811 194.598 461.226 197.704 461.453C199.685 461.597 199.734 463.292 200.198 464.461C201.25 467.106 202.035 469.86 202.872 472.587C203.196 473.646 203.713 474.065 204.899 474.05C210.82 473.977 216.743 473.984 222.665 474.032C225.362 474.054 228.061 474.378 230.754 474.317C235.82 474.202 240.892 474.038 245.943 473.649C250.829 473.273 255.689 472.566 260.565 472.044C263.989 471.678 267.435 471.484 270.845 471.02C274.811 470.479 278.743 469.693 282.701 469.083C284.681 468.778 286.693 468.688 288.675 468.395C292.074 467.893 295.473 467.371 298.85 466.74C301.984 466.155 304.932 466.762 307.881 467.739C313.624 469.641 319.381 471.499 325.141 473.347C326.166 473.675 326.469 473.945 326.007 475.193C324.309 479.773 322.72 484.403 321.339 489.087C320.364 492.393 319.69 495.798 319.065 499.193C318.298 503.354 317.657 507.54 317.086 511.732C316.649 514.935 316.372 518.161 316.086 521.382C315.722 525.476 315.377 529.572 315.102 533.673C314.828 537.757 314.599 541.846 314.444 545.936C314.182 552.881 313.985 559.828 313.777 566.775C313.651 570.982 313.572 575.19 313.434 579.396C313.394 580.617 313.003 581.87 313.189 583.042C313.329 583.926 313.955 585.163 314.674 585.44C316.524 586.156 317.059 587.537 317.043 589.439C317.022 591.869 316.718 594.3 316.781 596.724C316.822 598.268 316.232 599.347 315.113 600.166C310.025 603.889 304.887 607.543 299.801 611.269C297.388 613.038 295.007 614.858 292.694 616.756C290.216 618.789 287.788 620.888 285.426 623.054C283.072 625.213 281.82 627.853 281.423 631.145C281.116 633.698 281.442 636.07 281.866 638.499C282.087 639.763 282.807 640.281 284.118 639.852C289.626 638.049 295.124 636.212 300.658 634.494C309.8 631.656 318.967 628.899 328.125 626.111C331.389 625.117 334.653 624.124 337.921 623.143C339.923 622.542 340.346 620.741 340.717 619.111C341.773 614.475 340.409 610.256 337.972 606.369C336.48 603.99 334.742 601.766 333.111 599.475C331.779 597.604 332.123 595.688 332.782 593.663C334.929 587.073 337.039 580.469 339.069 573.841C341.072 567.298 343.057 560.747 344.872 554.15C346.79 547.178 348.531 540.156 350.285 533.139C351.234 529.342 352.129 525.528 352.898 521.692C353.472 518.823 353.798 515.904 354.249 513.009C354.788 509.552 355.113 506.036 356 502.669C356.382 501.221 357.784 499.895 359.006 498.846C361.667 496.559 364.724 494.856 368.045 493.692C368.866 493.404 369.755 493.206 370.621 493.173C374.741 493.017 378.866 492.976 382.986 492.81C387.01 492.647 391.033 492.423 395.051 492.151C399.196 491.872 403.337 491.536 407.474 491.164C411.903 490.764 416.347 490.448 420.743 489.811C425.404 489.136 430.022 488.154 434.646 487.247C436.151 486.951 437.249 487.867 437.483 489.994C437.993 494.646 439.568 498.968 441.439 503.2C442.789 506.253 445.335 507.778 448.476 508.299C450.718 508.671 453.015 509.025 455.271 508.94C461.69 508.696 467.415 506.572 472.508 502.488C478.966 497.308 482.745 490.387 485.963 483.008C487.405 479.701 489.261 476.546 490.392 473.142C491.621 469.446 492.243 465.544 493.099 461.725C493.765 458.753 494.445 455.781 495.005 452.788C495.448 450.421 495.727 448.023 496.064 445.636C496.511 442.466 496.952 439.294 497.377 436.121C497.518 435.071 497.657 434.015 497.701 432.959C497.838 429.651 497.906 426.341 498.046 423.034C498.242 418.396 498.608 413.761 498.669 409.121C498.774 401.186 498.763 393.248 498.668 385.313C498.627 381.828 498.333 378.34 498.021 374.866C497.666 370.917 497.128 366.984 496.736 363.038C496.456 360.221 496.368 357.384 496.046 354.573C495.574 350.448 495.056 346.325 494.398 342.227C493.616 337.352 492.722 332.494 491.776 327.648C489.987 318.479 487.905 309.365 484.497 300.652C482.326 295.102 480.061 289.439 475.629 285.249C473.71 283.435 471.045 282.39 468.661 281.103C462.119 277.57 455.542 274.1 448.997 270.571C448.691 270.406 448.429 269.927 448.379 269.561C448.205 268.296 448.282 266.979 447.972 265.756C447.771 264.96 447.213 264.085 446.555 263.604C444.347 261.988 442.034 260.515 439.732 259.034C439.32 258.769 438.736 258.537 438.283 258.611C435.856 259.004 434.638 257.505 433.806 255.662C432.679 253.165 431.651 250.611 430.777 248.016C429.329 243.716 427.869 239.407 426.774 235.011C426.396 233.495 426.977 231.686 427.319 230.053C428.013 226.728 428.59 223.343 429.708 220.157C430.423 218.12 431.87 216.273 433.252 214.554C436.827 210.11 438.704 205.132 438.103 199.429C437.842 196.952 436.783 194.645 434.937 192.845C432.764 190.728 430.536 188.667 428.356 186.557C426.767 185.018 426.881 183.842 428.95 182.338C431.846 180.233 434.623 177.958 437.393 175.686C439.759 173.745 440.777 170.972 441.404 168.13C442.257 164.263 442.359 160.362 440.787 156.587C438.272 150.551 434.648 145.569 428.015 143.691C422.168 142.035 416.336 142.147 411.089 145.472C406.322 148.493 403.294 152.992 401.962 158.545C400.399 165.062 402.178 170.927 405.461 176.505C405.736 176.972 405.764 177.586 405.907 178.131C405.419 178.224 404.933 178.377 404.442 178.399C398.127 178.688 391.851 179.391 386.195 182.41C378.771 186.374 374.102 192.655 372.043 200.83C371.735 202.053 371.737 203.369 371.697 204.645C371.559 208.997 371.548 213.356 371.291 217.7C371.238 218.607 370.546 219.72 369.806 220.301C366.257 223.09 365.05 229.918 368.351 233.96C368.681 234.364 368.962 234.809 369.286 235.219C370.554 236.82 372.393 237.597 374.224 237.27C375.784 236.992 375.916 237.518 376.431 238.673C377.53 241.137 378.848 243.521 380.267 245.819C382.17 248.899 384.113 251.975 386.313 254.841C387.642 256.572 389.437 257.965 391.12 259.394C393.161 261.128 395.32 262.723 397.398 264.413C398.435 265.257 399.572 265.692 400.897 265.5C402.27 265.302 403.043 266.077 403.446 267.193C404.222 269.348 404.924 271.535 405.538 273.742C405.667 274.207 405.393 274.885 405.112 275.348C402.662 279.395 400.227 283.454 397.667 287.43C395.588 290.658 393.225 293.704 391.215 296.97C389.971 298.99 389.147 301.271 388.139 303.437C386.382 307.215 384.587 310.977 382.908 314.791C382.562 315.575 382.468 316.58 382.589 317.437C382.765 318.684 383.99 319.082 385.319 318.277C386.863 317.342 388.317 316.249 389.762 315.161C390.657 314.487 391.462 313.694 392.313 312.96C392.411 312.875 392.543 312.829 392.659 312.765C392.678 312.914 392.73 313.068 392.71 313.211C392.472 314.888 392.281 316.575 391.961 318.237C391.631 319.953 391.128 321.636 390.78 323.349C390.09 326.753 389.423 330.163 388.805 333.581C388.11 337.424 387.442 341.274 386.838 345.133C386.528 347.117 386.422 349.132 386.155 351.124C385.751 354.135 385.243 357.133 384.865 360.148C384.659 361.794 384.614 363.462 384.523 365.122C384.398 367.385 384.316 369.651 384.187 371.913C383.868 377.495 383.545 383.077 383.194 388.657C383.106 390.041 382.296 391.105 381.054 391.501C377.521 392.626 375.052 396.763 375.647 400.217C375.785 401.019 375.963 401.85 376.315 402.574C377.16 404.311 376.058 405.297 374.962 406.2C373.182 407.667 371.328 409.045 369.469 410.412C365.057 413.656 360.614 416.858 356.201 420.102C352.204 423.04 347.794 425.083 343.061 426.531C339.261 427.694 336.029 429.898 332.991 432.439C331.499 433.686 330.208 435.533 327.845 435.078C324.5 434.433 321.165 433.733 317.828 433.043C316.823 432.835 315.835 432.531 314.825 432.356C311.305 431.749 309.227 429.25 307.155 426.666C305.613 424.743 303.895 422.964 302.291 421.09C299.135 417.404 296.014 413.688 292.86 410C291.292 408.167 289.679 406.374 288.096 404.554C283.634 399.426 279.198 394.274 274.708 389.17C272.355 386.495 269.903 383.906 267.508 381.268C266.864 380.558 266.174 379.864 265.664 379.062C264.889 377.841 264.098 377.466 262.584 377.958C259.272 379.034 259.331 378.829 261.647 381.377C265.794 385.94 269.803 390.629 273.886 395.251C275.882 397.51 277.945 399.711 279.925 401.984C283.399 405.974 286.821 410.009 290.288 414.005C292.749 416.842 295.241 419.651 297.732 422.461C299.659 424.635 301.613 426.785 303.534 428.965C303.702 429.155 303.834 429.683 303.775 429.72C303.305 430.015 302.777 430.452 302.282 430.432C298.258 430.275 294.239 429.966 290.214 429.828C287.202 429.725 284.18 429.724 281.167 429.829C277.307 429.962 273.441 430.129 269.597 430.499C265.315 430.911 261.056 431.573 256.786 432.116C252.407 432.672 248.015 433.131 243.652 433.791C239.292 434.45 234.968 435.34 230.617 436.066C227.014 436.667 223.385 437.113 219.787 437.741C215.199 438.543 210.633 439.475 206.051 440.319C202.834 440.911 199.604 441.428 196.387 442.021C193.286 442.593 190.2 443.256 187.095 443.809C185.139 444.158 183.165 444.509 181.187 444.591C180.358 444.625 179.302 444.173 178.687 443.586C173.984 439.098 169.425 434.457 164.7 429.991C159.413 424.993 153.884 420.275 147.922 416.08C145.194 414.161 142.139 414.496 139.167 414.754C137.435 414.905 135.76 415.742 134.064 416.283C132.671 416.727 132.547 417.589 133.166 418.808C135.979 424.346 138.742 429.909 141.556 435.446C143.988 440.232 146.465 444.995 149.004 449.85C152.322 456.287 155.554 462.642 158.796 468.993ZM419.105 428.156C417.626 423.866 416.328 419.505 415.162 415.119C414.405 412.27 413.975 409.327 413.488 406.412C412.988 403.416 412.57 400.406 412.166 397.395C411.696 393.898 410.966 390.399 410.909 386.892C410.795 379.85 411.085 372.802 411.163 365.756C411.21 361.45 411.235 357.142 411.151 352.837C411.085 349.45 413.049 346.926 414.481 344.149C415.434 342.3 416.44 340.435 417.048 338.461C418.165 334.84 419.073 331.149 419.938 327.457C420.53 324.932 420.966 322.365 421.355 319.8C421.805 316.831 422.778 314.042 424.042 311.348C424.148 311.122 425.035 310.957 425.131 311.085C425.64 311.769 426.019 312.551 426.43 313.307C427.162 314.651 428.274 315.931 428.529 317.363C429.036 320.224 430.351 322.679 431.694 325.134C432.531 326.662 433.939 326.701 434.917 325.299C435.969 323.792 437.104 322.271 437.776 320.584C439.353 316.62 440.766 312.582 442.079 308.52C443.806 303.182 445.434 297.81 446.984 292.418C447.793 289.603 448.599 286.743 448.939 283.848C449.272 281.01 449.008 278.102 449.017 275.225C449.018 274.967 449.096 274.71 449.139 274.453C449.255 274.545 449.361 274.655 449.489 274.725C452.496 276.384 455.483 278.079 458.518 279.683C461.528 281.274 464.553 282.845 467.633 284.294C471.008 285.881 474.396 287.518 476.35 290.843C478.465 294.441 480.937 297.87 482.211 301.925C483.525 306.106 485.01 310.238 486.154 314.464C487.323 318.787 488.119 323.21 489.173 327.566C489.846 330.349 490.955 333.048 491.397 335.859C492.071 340.147 492.487 344.492 492.729 348.828C492.936 352.55 492.92 356.282 493.421 359.99C493.81 362.868 494.074 365.764 494.424 368.648C494.957 373.039 495.915 377.422 495.984 381.819C496.136 391.554 495.736 401.297 495.781 411.035C495.805 416.139 495.046 421.129 494.447 426.159C493.782 431.744 493.388 437.361 492.753 442.951C492.321 446.749 491.889 450.57 491.082 454.298C489.767 460.369 488.354 466.434 486.598 472.388C484.408 479.816 481.191 486.813 476.663 493.16C473.833 497.127 470.378 500.375 466.113 502.71C460.332 505.876 454.131 505.602 447.919 504.636C446.9 504.477 445.582 503.691 445.145 502.82C443.923 500.381 442.854 497.807 442.158 495.171C441.169 491.426 440.732 487.535 439.761 483.784C438.161 477.599 436.147 471.518 434.639 465.312C433.397 460.2 431.031 455.588 428.974 450.835C427.461 447.338 425.671 443.961 423.84 440.365C422.249 436.3 420.527 432.28 419.105 428.156ZM364.531 491.297C361.539 493.131 358.606 495.076 355.76 497.13C353.982 498.412 352.705 500.276 352.315 502.43C351.413 507.419 350.815 512.463 349.942 517.458C349.33 520.964 348.451 524.422 347.723 527.908C347.131 530.746 346.583 533.593 346.021 536.438C345.469 539.233 344.932 542.03 344.373 544.824C343.947 546.953 343.506 549.08 343.057 551.204C342.331 554.639 341.753 558.117 340.815 561.493C339.891 564.819 338.501 568.012 337.487 571.317C335.799 576.815 333.704 582.138 331.278 587.35C330.703 588.585 329.735 588.337 329.162 588.112C325.532 586.686 321.95 585.13 318.393 583.527C317.27 583.022 316.673 582.042 316.725 580.704C316.865 577.067 316.963 573.429 317.062 569.791C317.181 565.439 317.283 561.087 317.394 556.735C317.502 552.473 317.526 548.208 317.747 543.953C317.963 539.795 318.37 535.648 318.712 531.498C319.14 526.328 319.537 521.155 320.043 515.993C320.392 512.428 320.712 508.842 321.384 505.331C322.548 499.252 323.977 493.224 325.29 487.173C326.819 480.122 329.774 473.978 335.616 469.363C340.065 465.848 344.733 462.709 349.779 460.202C355.362 457.428 361.006 454.727 366.801 452.447C373.425 449.841 379.86 446.548 387.154 445.948C390.658 445.659 394.134 445.043 397.632 444.67C400.439 444.371 403.268 444.286 406.074 443.978C410.514 443.49 414.937 442.842 419.381 442.405C420.004 442.343 420.942 442.931 421.325 443.496C422.203 444.796 422.864 446.25 423.55 447.672C425.692 452.114 428.2 456.429 429.829 461.055C431.982 467.166 433.444 473.524 435.19 479.779C436.179 483.323 436.2 483.481 433.12 484.129C429.556 484.878 425.935 485.376 422.324 485.874C419.963 486.2 417.57 486.29 415.199 486.563C410.708 487.081 406.227 487.7 401.733 488.187C398.873 488.496 395.997 488.683 393.125 488.854C388.831 489.11 384.536 489.349 380.239 489.506C377.665 489.6 375.086 489.523 372.18 489.523C369.481 489.473 366.845 489.878 364.531 491.297ZM235.572 470.714C232.804 470.844 230.035 470.98 227.264 471.039C220.841 471.176 214.417 471.285 207.993 471.363C206.711 471.379 205.556 470.846 205.21 469.522C203.349 462.394 199.689 455.785 199.219 448.244C199.1 446.332 199.926 444.981 201.873 444.64C203.903 444.283 205.907 443.783 207.932 443.396C210.479 442.909 213.037 442.482 215.586 442.012C217.876 441.59 220.163 441.151 222.448 440.708C224.121 440.384 225.788 440.026 227.462 439.708C230.667 439.101 233.875 438.506 237.083 437.916C239.276 437.513 241.468 437.1 243.67 436.745C245.377 436.47 247.1 436.298 248.812 436.047C252.428 435.518 256.041 434.969 259.654 434.426C261.718 434.116 263.778 433.776 265.847 433.496C268.605 433.122 271.372 432.491 274.132 432.507C281.059 432.546 287.986 432.851 294.911 433.123C298.222 433.252 301.54 433.437 304.831 433.81C306.673 434.018 308.444 434.603 309.78 436.16C311.957 438.696 314.294 441.093 316.493 443.611C317.881 445.2 319.181 446.872 320.45 448.561C322.129 450.794 324.176 452.151 327.104 451.924C331.898 451.552 336.7 451.278 341.495 450.909C343.274 450.772 345.045 450.506 346.815 450.258C349.815 449.837 352.807 449.348 355.811 448.953C358.683 448.576 361.565 448.263 364.447 447.966C365.261 447.882 366.092 447.929 366.912 447.974C367.075 447.984 367.224 448.263 367.379 448.418C367.212 448.496 367.041 448.567 366.877 448.653C365.435 449.408 364.03 450.249 362.545 450.907C358.19 452.836 353.699 454.486 349.453 456.628C343.289 459.738 337.536 463.536 332.306 468.101C330.684 469.517 329.127 470.568 326.467 470.213C322.251 469.65 318.311 468.607 314.528 466.761C309.437 464.275 304.256 462.237 298.401 463.455C295.013 464.159 291.607 464.777 288.225 465.504C286.081 465.965 283.991 466.725 281.832 467.046C279.153 467.445 276.427 467.515 273.723 467.751C268.806 468.181 263.89 468.637 258.972 469.065C255.633 469.356 252.292 469.618 248.787 470.058C244.382 470.278 239.978 470.508 235.572 470.714ZM406.909 375.4C406.861 376.718 406.913 378.039 406.891 379.358C406.789 385.525 406.692 391.692 406.555 397.859C406.515 399.648 406.593 401.493 406.184 403.209C405.357 406.683 404.272 410.098 403.215 413.514C402.762 414.976 402.132 416.369 400.484 416.948C399.05 417.451 397.662 418.085 396.225 418.58C394.093 419.314 393.44 419.036 392.049 417.08C391.59 416.433 391.059 415.835 390.542 415.23C387.212 411.334 383.78 407.519 380.573 403.524C378.205 400.576 378.616 395.83 382.58 394.308C383.006 394.144 383.429 393.947 383.872 393.855C386.215 393.368 386.106 393.374 386.184 391.155C386.462 383.22 385.534 375.265 386.777 367.34C387.273 364.176 387.069 360.904 387.525 357.731C388.234 352.793 389.217 347.894 390.118 342.985C390.971 338.342 391.825 333.699 392.759 329.072C393.456 325.619 394.294 322.195 395.044 318.752C395.617 316.127 396.066 313.471 396.758 310.878C396.945 310.178 397.812 309.659 398.366 309.057C399.015 309.686 400.153 310.259 400.231 310.953C400.629 314.47 401.17 318.055 400.862 321.546C400.508 325.555 399.908 329.529 400.671 333.51C401.54 338.045 402.987 342.401 405.437 346.369C406.795 348.569 407.809 350.852 407.578 353.573C407.35 356.267 407.275 358.977 407.237 361.681C407.183 365.529 407.223 369.378 407.223 373.556C407.114 374.171 406.932 374.783 406.909 375.4ZM424.162 239.121C424.439 239.551 424.822 239.946 424.976 240.417C426.538 245.214 427.965 250.057 429.635 254.815C430.642 257.682 432.221 260.24 434.832 262.042C436.729 263.351 438.498 264.844 440.355 266.214C441.27 266.89 441.077 267.475 440.506 268.296C438.798 270.751 436.992 273.166 435.566 275.784C433.599 279.397 431.913 283.166 430.162 286.895C428.456 290.528 426.674 294.136 425.196 297.863C423.94 301.029 423.265 304.429 421.973 307.577C420.806 310.423 419.553 313.228 419.13 316.276C418.986 317.313 418.651 317.321 417.868 317.319C413.163 317.302 408.619 316.678 404.652 313.868C404.313 313.628 404.026 313.134 403.962 312.72C403.806 311.717 403.833 310.688 403.715 309.677C403.633 308.964 403.169 308.193 403.335 307.572C403.953 305.262 404.776 303.008 405.495 300.724C406.868 296.361 408.67 292.044 408.793 287.442C408.918 282.758 408.498 278.054 408.178 273.368C408.048 271.457 407.674 269.539 407.192 267.681C406.627 265.502 406.761 264.905 408.722 263.843C411.949 262.093 414.73 259.741 416.719 256.707C419.964 251.756 422.457 246.428 423.347 240.269C423.619 239.886 423.89 239.504 424.162 239.121ZM377.356 237.661C377.266 237.483 376.468 236.927 377.655 236.726C378.855 236.524 380.209 235.94 381.032 235.078C382.648 233.388 383.985 231.42 385.343 229.499C385.727 228.956 385.863 228.626 386.403 229.278C386.746 229.691 387.191 230.02 387.533 230.434C390.502 234.03 394.771 235.557 398.768 234.558C403.559 233.36 406.481 228.235 406.546 223.789C406.572 222.016 407.131 220.531 408.542 219.512C410.891 217.815 413.307 216.21 415.721 214.606C417.072 213.709 418.36 214.002 418.709 215.418C419.572 218.922 420.647 222.435 420.949 226.003C421.322 230.417 421.144 234.873 420.094 239.278C418.324 246.699 416.026 253.75 409.989 258.98C406.096 262.351 401.289 263.11 396.654 261.069C392.062 259.047 389.24 255.307 386.494 251.413C384.187 248.141 381.887 244.864 379.419 241.424C378.721 240.174 377.998 238.938 377.356 237.661ZM178.451 458.057C175.261 462.131 171.549 465.531 166.47 467.176C163.333 468.191 162.184 468.012 160.448 464.692C156.906 457.92 153.405 451.126 149.915 444.327C148.521 441.612 147.232 438.841 145.835 436.127C143.108 430.825 140.344 425.542 137.579 420.259C137.075 419.295 137.554 418.422 138.298 418.322C140.877 417.977 143.601 417.238 145.997 418.836C149.156 420.944 152.336 423.065 155.242 425.498C159.651 429.19 163.897 433.084 168.078 437.035C169.975 438.827 171.577 440.939 173.262 442.948C174.594 444.535 176.304 445.871 176.811 448.039C177.279 450.044 177.742 452.051 178.207 454.387C178.753 455.583 179.365 456.891 178.451 458.057ZM287.126 635.127C286.374 635.186 284.925 634.844 284.918 634.641C284.821 631.801 284.285 628.791 286.826 626.574C290.128 623.692 293.328 620.677 296.772 617.977C302.328 613.619 308.047 609.469 313.7 605.236C315.72 603.724 317.729 602.118 320.3 601.724C322.602 601.371 324.948 601.324 327.257 601.015C329.206 600.754 330.531 601.601 331.714 603.007C334.583 606.419 336.67 610.211 337.459 614.641C338.077 618.112 336.963 620.025 334.17 620.85C328.85 622.421 323.569 624.12 318.26 625.727C314.456 626.878 310.616 627.915 306.82 629.091C301.283 630.805 295.77 632.598 289.918 634.358C288.989 634.63 288.071 635.052 287.126 635.127ZM398.833 421.222C402.506 419.763 406.158 418.249 409.84 416.813C410.928 416.389 411.854 416.263 412.212 417.944C412.602 419.769 413.432 421.496 414.032 423.279C415.364 427.235 416.702 431.189 417.962 435.167C418.195 435.902 418.55 436.935 417.102 437.075C415.216 437.258 413.34 437.574 411.452 437.711C407.763 437.98 404.071 438.245 400.376 438.367C394.886 438.549 389.393 438.614 383.9 438.711C382.147 438.742 380.392 438.71 378.637 438.719C378.211 438.722 377.758 438.691 377.361 438.815C372.606 440.306 367.868 441.851 363.109 443.327C358.321 444.812 353.526 446.27 348.411 445.984C346.636 445.884 346.31 445.55 346.963 443.911C347.319 443.017 347.814 442.106 348.47 441.416C351.674 438.048 355.585 435.698 359.769 433.764C363.103 432.224 366.362 430.506 370.112 430.119C371.867 429.938 373.635 429.685 375.34 429.242C378.048 428.539 380.734 427.724 383.383 426.819C386.693 425.689 389.955 424.419 393.568 423.209C395.323 422.549 397.089 421.914 398.833 421.222ZM440.143 275.579C441.683 273.185 443.303 270.844 444.894 268.484C445.116 268.156 445.357 267.841 445.59 267.52C445.743 268.06 445.96 268.592 446.039 269.143C446.302 270.965 446.45 272.805 446.762 274.618C447.38 278.205 447.716 281.73 445.397 284.919C445.251 285.121 445.135 285.363 445.069 285.604C444.217 288.712 443.379 291.825 442.529 294.934C442.314 295.721 442.09 296.507 441.832 297.281C440.723 300.61 439.38 303.88 438.544 307.277C437.686 310.765 437.028 314.271 435.246 317.458C434.734 318.373 434.568 319.479 434.19 320.477C434.077 320.775 433.705 321.255 433.587 321.218C433.211 321.1 432.714 320.85 432.588 320.524C431.116 316.733 430.407 312.592 427.615 309.408C425.243 306.704 425.735 303.941 427.19 301.054C427.759 299.926 428.11 298.69 428.618 297.529C429.715 295.017 430.765 292.48 431.993 290.033C433.066 287.895 434.365 285.872 435.546 283.788C436.376 282.322 437.176 280.839 438.154 279.199C438.812 277.989 439.4 276.734 440.143 275.579ZM351.265 426.994C356.07 423.879 360.943 420.855 365.599 417.527C369.498 414.742 373.111 411.557 376.9 408.612C377.923 407.818 379.096 407.554 380.141 408.752C381.834 410.692 383.56 412.604 385.25 414.547C386.51 415.994 387.719 417.485 388.98 418.93C389.966 420.06 389.862 420.665 388.419 421.098C383.783 422.489 379.112 423.768 374.49 425.204C368.18 427.163 361.877 429.154 355.624 431.287C353.623 431.97 351.86 433.348 349.861 434.04C347.832 434.743 345.663 435.11 343.525 435.409C341.054 435.754 338.553 435.892 336.061 436.047C335.664 436.072 335.243 435.716 334.833 435.536C335.076 435.197 335.26 434.786 335.571 434.531C339.522 431.287 344.24 429.613 349.146 427.828C349.856 427.556 350.64 427.398 351.265 426.994ZM413.834 340.094C413.223 342.419 411.772 343.549 409.536 343.76C407.607 343.942 407.04 342.88 406.569 341.465C405.895 339.439 405.228 337.41 404.595 335.371C403.19 330.841 403.391 326.277 404.232 321.672C404.506 320.17 404.442 318.606 404.511 317.069C404.521 316.846 404.407 316.617 404.351 316.391C404.577 316.457 404.811 316.503 405.027 316.592C406.382 317.154 407.686 317.933 409.095 318.25C411.733 318.845 414.423 319.238 417.109 319.582C418.145 319.715 418.76 319.824 418.43 321.097C418.119 322.299 417.995 323.548 417.748 324.768C417.215 327.397 416.656 330.021 416.107 332.976C415.34 335.346 414.467 337.688 413.834 340.094ZM385.715 315.276C385.459 315.493 385.175 315.677 384.903 315.876C384.905 315.508 384.803 315.1 384.925 314.777C385.638 312.877 386.302 310.948 387.172 309.119C389.028 305.216 390.733 301.202 392.998 297.543C395.225 293.947 398.224 290.838 400.59 287.317C402.284 284.794 403.483 281.938 404.93 279.245C405.153 278.831 405.521 278.496 405.821 278.124C405.959 278.561 406.226 279.001 406.215 279.434C406.146 282.247 406.109 285.065 405.874 287.866C405.714 289.777 405.393 291.702 404.881 293.547C404.313 295.595 403.282 297.518 402.751 299.573C402.13 301.978 400.991 303.499 398.669 304.783C394.819 306.914 390.846 309.128 388.138 313.181C387.331 313.88 386.528 314.584 385.715 315.276ZM402.854 222.051C404.117 223.897 401.775 230.362 400.501 230.843C391.584 234.21 389.042 228.449 388.925 226.867C388.692 223.728 388.306 220.545 391.265 217.999C399.069 216.442 400.812 219.069 402.854 222.051ZM368.71 224.665C369.908 221.67 371.722 219.717 374.88 220.4C376.492 220.749 377.911 222.03 379.394 222.93C382.578 224.862 382.994 225.919 381.881 229.345C380.767 232.773 378.169 234.736 374.863 235.403C372.126 235.955 370.171 234.252 368.725 231.691C368.36 229.351 367.761 227.036 368.71 224.665ZM380.518 220.793C379.232 219.875 377.839 218.518 376.452 218.467C374.053 218.381 374.442 216.911 374.701 215.753C375.424 212.519 376.369 209.332 377.291 206.145C377.923 203.964 378.457 203.839 379.989 205.375C382.613 208.007 385.271 210.588 388.567 212.405C389.598 212.973 389.74 214.282 389.003 215.314C388.728 215.698 388.356 216.027 388.15 216.442C387.137 218.486 386.218 220.58 385.135 222.586C384.896 223.029 385.078 224.598 383.532 223.443C382.533 222.551 381.601 221.565 380.518 220.793ZM186.884 457.465C184.645 457.047 182.247 456.471 181.901 453.484C181.843 452.982 181.615 452.503 181.501 452.005C180.795 448.917 181.595 447.928 184.677 447.596C187.579 447.284 190.459 446.763 193.343 446.296C194.886 446.046 195.17 446.336 195.341 447.911C195.577 450.093 195.916 452.268 196.322 454.425C196.679 456.315 196.151 457.811 194.495 458.181C191.954 457.961 189.379 457.93 186.884 457.465ZM321.252 598.018C320.939 598.004 320.406 597.381 320.395 597.025C320.318 594.665 320.374 592.302 320.347 589.94C320.333 588.612 321.346 588.568 322.074 588.801C323.658 589.307 325.165 590.062 326.694 590.737C327.799 591.224 329.041 591.619 328.907 593.217C328.813 594.345 328.813 595.5 328.554 596.591C328.123 598.403 326.564 597.541 325.291 597.902C323.944 597.957 322.594 598.078 321.252 598.018ZM408.893 406.099C408.988 405.83 409.377 405.666 409.631 405.454C409.816 405.719 410.137 405.972 410.163 406.251C410.317 407.948 410.45 409.649 410.501 411.351C410.552 413.014 409.378 414.092 407.692 413.939C407.406 413.913 406.9 413.408 406.937 413.206C407.185 411.854 407.553 410.524 408.046 409.023C408.321 408.045 408.557 407.054 408.893 406.099ZM316.186 437.267C316.004 436.904 315.62 435.893 316.736 436.104C318.438 436.424 320.112 436.908 321.786 437.366C322.092 437.45 322.342 437.737 322.618 437.931C322.298 438.083 321.982 438.353 321.657 438.365C320.292 438.414 318.925 438.386 317.394 438.221C316.975 437.911 316.396 437.682 316.186 437.267ZM443.254 264.188C443.516 264.341 443.779 264.494 444.041 264.647C443.835 264.877 443.666 265.198 443.408 265.305C443.254 265.37 442.917 265.149 442.739 264.976C441.726 263.992 440.732 262.988 439.744 261.979C439.546 261.777 439.402 261.522 439.233 261.291C439.566 261.356 439.984 261.316 440.217 261.505C441.204 262.307 442.137 263.177 443.254 264.188Z" fill="#00160A"/>
<path fill-rule="evenodd" clip-rule="evenodd" d="M407.994 244.969C409.536 244.133 411.061 243.448 411.381 241.585C412.003 237.965 410.703 233.7 406 233.948C401.76 234.172 399.069 237.704 400.57 241.694C401.676 244.636 404.36 246.095 407.994 244.969Z" fill="#F97D7B"/>
<path fill-rule="evenodd" clip-rule="evenodd" d="M387.083 231.466C386.999 230.911 386.914 230.522 386.83 230.134C386.696 230.473 386.525 230.801 386.436 231.152C385.774 233.748 383.678 240.213 386.175 243.188C386.382 243.435 387.436 243.475 388.092 243.433C389.381 243.351 390.884 241.443 390.645 240.213C390.609 240.029 387.497 243.058 386.83 241.418C385.716 238.684 387.083 232.406 387.083 231.466Z" fill="#00160A"/>
<path fill-rule="evenodd" clip-rule="evenodd" d="M404.636 250.41C404.766 250.344 404.945 250.362 405.1 250.368C405.484 250.384 406.008 249.696 405.785 249.404C405.449 248.966 405.067 248.523 404.612 248.235C404.341 248.063 403.892 248.62 403.926 248.866C403.951 249.051 403.777 249.339 403.607 249.464C401.031 251.362 398.171 252.593 395.041 253.184C394.835 253.223 394.655 253.408 394.462 253.526C394.654 253.659 394.845 253.919 395.038 253.908C398.452 253.707 402.4 251.549 404.636 250.41Z" fill="#00160A"/>
<path fill-rule="evenodd" clip-rule="evenodd" d="M487.821 399.08L491.064 412.974C491.315 414.048 490.307 414.989 489.257 414.661L477.999 411.145C477.052 410.849 476.69 409.696 477.297 408.909L485.313 398.532C486.046 397.583 487.548 397.911 487.821 399.08ZM486.437 401.308L479.369 409.783L489.68 413.299L486.437 401.308Z" fill="#F97D7B"/>
<path fill-rule="evenodd" clip-rule="evenodd" d="M477.76 318.92C478.945 318.813 479.729 320.127 479.075 321.125L470.827 333.702C470.271 334.55 469.035 334.561 468.465 333.723L460.873 322.571C460.261 321.672 460.839 320.443 461.921 320.346L477.76 318.92ZM476.644 320.346L462.463 323.11L470.827 331.891L476.644 320.346Z" fill="#F97D7B"/>
<path fill-rule="evenodd" clip-rule="evenodd" d="M425.489 415.096H437.122C438.087 415.096 438.771 416.039 438.476 416.96L434.568 429.143C434.199 430.294 432.661 430.492 432.015 429.472L424.289 417.288C423.687 416.339 424.367 415.096 425.489 415.096ZM426.437 417.474L432.267 428.707L436.174 416.523L426.437 417.474Z" fill="#F97D7B"/>
<path fill-rule="evenodd" clip-rule="evenodd" d="M463.607 481.117L464.139 491.679C464.194 492.786 463.025 493.531 462.05 493.01L448.524 485.782C447.378 485.17 447.583 483.464 448.84 483.142L461.834 479.807C462.705 479.583 463.562 480.216 463.607 481.117ZM462.579 482.125L450.149 483.856L462.05 490.913L462.579 482.125Z" fill="#F97D7B"/>
<path fill-rule="evenodd" clip-rule="evenodd" d="M481.541 351.388L491.969 358.639C492.852 359.252 492.764 360.588 491.808 361.08L479.605 367.365C478.585 367.89 477.396 367.05 477.546 365.91L479.321 352.374C479.46 351.316 480.666 350.78 481.541 351.388ZM481.122 353.907L478.955 366.096L491.159 359.811L481.122 353.907Z" fill="#F97D7B"/>
<path fill-rule="evenodd" clip-rule="evenodd" d="M433.693 382.445L440.2 392.191C440.76 393.03 440.297 394.171 439.313 394.38L431.704 395.994C430.764 396.194 429.902 395.42 429.995 394.461L431.096 383.101C431.225 381.768 432.95 381.332 433.693 382.445ZM431.921 384.398V394.834L438.463 392.191L431.921 384.398Z" fill="#F97D7B"/>
<path fill-rule="evenodd" clip-rule="evenodd" d="M432.461 336.534C430.568 335.295 428.907 335.588 430.258 338.316C430.258 338.316 440.128 363.417 443.077 363.715C445.873 363.997 447.223 360.369 451.128 349.997L451.294 349.555C451.309 349.516 451.322 349.477 451.333 349.438L451.354 349.355L451.379 349.309L451.433 349.182L451.9 347.916C452.452 346.405 453.84 343.913 454.574 343.047C455.356 342.124 453.611 341.553 452.322 341.553C449.915 341.553 446.971 342.227 442.34 340.886C436.917 339.316 435.056 338.233 432.461 336.534ZM436.658 349.43L436.789 349.514C438.166 350.365 439.687 351.019 441.35 351.475C443.339 352.02 446.225 352.087 448.092 351.679L448.404 351.606L448.289 351.894C447.236 354.528 446.299 357.574 445.482 359.123L445.197 359.65C444.686 360.573 444.236 361.243 443.873 361.646L443.759 361.765L443.618 361.594C443.009 360.813 440.842 357.876 439.337 354.943L439.18 354.634C438.536 353.367 437.833 351.926 437.072 350.313L436.658 349.43ZM432.596 339.434L432.825 339.564C434.966 340.761 438.508 342.746 441.552 343.627C445.196 344.682 448.285 345.059 450.826 344.721L450.982 344.698L450.893 344.95C450.65 345.632 449.621 348.859 449.257 349.354C447.782 350.721 445.973 350.851 443.759 350.313L443.442 350.231C435.513 348.695 432.596 339.434 432.596 339.434Z" fill="#F97D7B"/>
<path fill-rule="evenodd" clip-rule="evenodd" d="M154.161 427.189C153.845 426.955 153.4 427.022 153.167 427.339C151.526 429.572 148.747 429.682 145.052 427.624C144.709 427.433 144.276 427.557 144.085 427.902C143.895 428.246 144.018 428.68 144.362 428.872C148.613 431.239 152.171 431.098 154.311 428.186C154.544 427.869 154.477 427.422 154.161 427.189Z" fill="#E7EAEE"/>
<path fill-rule="evenodd" clip-rule="evenodd" d="M159.535 432.902C159.245 432.637 158.795 432.659 158.531 432.95C156.041 435.697 152.733 435.854 150.042 434.413C149.696 434.227 149.265 434.358 149.08 434.706C148.895 435.053 149.026 435.485 149.372 435.671C152.586 437.393 156.599 437.202 159.583 433.91C159.847 433.618 159.826 433.167 159.535 432.902Z" fill="#E7EAEE"/>
<path fill-rule="evenodd" clip-rule="evenodd" d="M165.358 438.562C165.072 438.292 164.622 438.305 164.353 438.592C161.954 441.149 157.075 442.399 153.738 440.625C153.391 440.44 152.96 440.573 152.777 440.921C152.593 441.269 152.725 441.701 153.072 441.885C157.024 443.986 162.58 442.563 165.388 439.57C165.657 439.283 165.644 438.832 165.358 438.562Z" fill="#E7EAEE"/>
<path fill-rule="evenodd" clip-rule="evenodd" d="M160.838 460.929C155.847 458.507 161.007 449.53 165.838 453.164C168.935 455.494 165.538 463.211 160.838 460.929Z" fill="#E7EAEE"/>
</svg>
